# xmcd
#
# Track frame offsets:
#	150
#	18675
#	37070
#	56465
#	75258
#	95070
#	111590
#	130458
#	149025
#	163693
#
# Disc length: 2429 seconds
#
# Revision: 0
# Processed by: cddbd v1.5.2PL0 Copyright (c) Steve Scherf et al.
# Submitted via: EasyCDDAExtractor 11.0.2.1
#
DISCID=92097b0a
DTITLE=Lissette - Maniqui
DYEAR=1987
DGENRE=Latin
TTITLE0=Maniqui
TTITLE1=Todo El Mundo Tiene Miedo De Amarse
TTITLE2=Descartame
TTITLE3=Tu Donde Estas
TTITLE4=Vampiro
TTITLE5=Gente
TTITLE6=Como Decirte
TTITLE7=Igual Que Tu
TTITLE8=Hablame
TTITLE9=Amar No Se Puede Apurar
EXTD=
EXTT0=
EXTT1=
EXTT2=
EXTT3=
EXTT4=
EXTT5=
EXTT6=
EXTT7=
EXTT8=
EXTT9=
PLAYORDER=
